<mxfile host="app.diagrams.net" modified="2022-07-24T01:10:15.773Z" agent="5.0 (Windows NT 10.0; Win64; x64) AppleWebKit/537.36 (KHTML, like Gecko) Chrome/100.0.4896.127 Safari/537.36" etag="iXolY24FkBwFmcihnoiL" version="20.1.1" type="github">
  <diagram id="C5RBs43oDa-KdzZeNtuy" name="Page-1">
    <mxGraphModel dx="1056" dy="566" grid="1" gridSize="10" guides="1" tooltips="1" connect="1" arrows="1" fold="1" page="1" pageScale="1" pageWidth="827" pageHeight="1169" math="0" shadow="0">
      <root>
        <mxCell id="WIyWlLk6GJQsqaUBKTNV-0" />
        <mxCell id="WIyWlLk6GJQsqaUBKTNV-1" parent="WIyWlLk6GJQsqaUBKTNV-0" />
        <mxCell id="M75hgqdOu7IKFfyKgUN4-38" value="" style="shape=stencil(lVjbclshDPwav2pAgIDnNP2PzMRpPE3jjOPe/r469WAfyWTdvjkny01a7Qo26e79+eFtu+Hwfjzsv25/7h6Pz5v0acO8e33eHnZH/bVJ95t097Q/bL8c9t9fH09/vz0syOXXt/2PZYZfp3GcKZdlFIffpy+RhP9++HzCv+xe1/hEvXl8g/iUDZ4pBYBnkmDwiWKBePb4KgAfKdv9Z2oIH0iqwctYcIqPnSobfKUK4hPbCPfAdyoZ4CslF/84djgfIBTEDsgU0IBM1UZUp6hoQPIp0CC0BAZoDmxMNWkZHLp7TmhQW/wYryG3nE48vkzxGiIb01ThiTNJtBxS1gISaYBsCnKlAvYTqXeDLzyyPsUHX5NFWQL2E4jt/MIU4fzBxl+EGth/oGzPW29w1HO6ChVAIKZuNaUpo0BRFq9xTSiC+DTqlp9dVQARWkXOLtDzkL2Pqr7YE/RKjGQ0X8lEpwi2lJQTyQ9AQqeUF2cE4Zz3eRXkQbLVEtJBGnRPtm76OdLzAUJdfJg6OITy2FVmF2gHokJiS6EX6E+VvR/0BAW7Vm+APVIEKyiXu622Vkcu5wPUkRy9E5RHZXO0UaqdAjB9PWK2UaqJBAm2bsnSVbCiKhGSkxhc0kq1YvNQ1MiRMYcrFctahYAb10uozCPZ00NkG9cbPrKQ0w3QbgcNyN7Z1BsD4EZnX9UqhgmtoNptdWPpsEBRt3N/s3L/gvhdKNhDa3/RgfY1Hkq36mAE2b9Ko6Vr5NFxzAeIZ18M0KCV/smu0EbbN8cHLwIypPAjWXItVSEG9SbZO24aLcQcH4dQX7ryhpS7De+4dP03hNvneAjCHJ+GHw98gBlWJ3H6EkbK51ZVfQcQoOCptbkO44YV8qDLaj9o/uAJF0YHMTdnlcf4H/FJ4n1QrRfsJ2lN+lsgg/yms8GsboGAn0v/zQ7f0XnPl8oLPxmdN1D1fEbuoarZnSxCE19U1s8v6FbaPD8Z6oPeWPyNCOPFiy7jW7gMW1nhQTxVbkR8fDD+av6M9p9HV/aPrwL5Oj6ogVc82/rFejV71UAdFM/4j+cXv5+MLjg3X2X0x+VJ52n38nJ6EVr/3z8B6afT81G6/wM=);fillColor=none;shadow=1;sketch=1;dashed=1;" vertex="1" parent="WIyWlLk6GJQsqaUBKTNV-1">
          <mxGeometry x="549.8182220458984" y="549.545467376709" width="315.3636779785156" height="387.0000114440918" as="geometry" />
        </mxCell>
        <mxCell id="M75hgqdOu7IKFfyKgUN4-8" value="Publisher" style="swimlane;fontStyle=1;align=center;verticalAlign=top;childLayout=stackLayout;horizontal=1;startSize=26;horizontalStack=0;resizeParent=1;resizeParentMax=0;resizeLast=0;collapsible=1;marginBottom=0;sketch=1;shadow=1;" vertex="1" parent="WIyWlLk6GJQsqaUBKTNV-1">
          <mxGeometry x="250" y="632" width="180" height="190" as="geometry" />
        </mxCell>
        <mxCell id="M75hgqdOu7IKFfyKgUN4-47" value="- subscribers[]" style="text;strokeColor=none;fillColor=none;align=left;verticalAlign=top;spacingLeft=4;spacingRight=4;overflow=hidden;rotatable=0;points=[[0,0.5],[1,0.5]];portConstraint=eastwest;sketch=1;shadow=1;" vertex="1" parent="M75hgqdOu7IKFfyKgUN4-8">
          <mxGeometry y="26" width="180" height="26" as="geometry" />
        </mxCell>
        <mxCell id="M75hgqdOu7IKFfyKgUN4-9" value="- status" style="text;strokeColor=none;fillColor=none;align=left;verticalAlign=top;spacingLeft=4;spacingRight=4;overflow=hidden;rotatable=0;points=[[0,0.5],[1,0.5]];portConstraint=eastwest;sketch=1;shadow=1;" vertex="1" parent="M75hgqdOu7IKFfyKgUN4-8">
          <mxGeometry y="52" width="180" height="26" as="geometry" />
        </mxCell>
        <mxCell id="M75hgqdOu7IKFfyKgUN4-10" value="" style="line;strokeWidth=1;fillColor=none;align=left;verticalAlign=middle;spacingTop=-1;spacingLeft=3;spacingRight=3;rotatable=0;labelPosition=right;points=[];portConstraint=eastwest;sketch=1;shadow=1;" vertex="1" parent="M75hgqdOu7IKFfyKgUN4-8">
          <mxGeometry y="78" width="180" height="8" as="geometry" />
        </mxCell>
        <mxCell id="M75hgqdOu7IKFfyKgUN4-11" value="+ addSubscriber(subscriber)" style="text;strokeColor=none;fillColor=none;align=left;verticalAlign=top;spacingLeft=4;spacingRight=4;overflow=hidden;rotatable=0;points=[[0,0.5],[1,0.5]];portConstraint=eastwest;sketch=1;shadow=1;" vertex="1" parent="M75hgqdOu7IKFfyKgUN4-8">
          <mxGeometry y="86" width="180" height="26" as="geometry" />
        </mxCell>
        <mxCell id="M75hgqdOu7IKFfyKgUN4-12" value="+ removeSubscriber(subscriber)" style="text;strokeColor=none;fillColor=none;align=left;verticalAlign=top;spacingLeft=4;spacingRight=4;overflow=hidden;rotatable=0;points=[[0,0.5],[1,0.5]];portConstraint=eastwest;sketch=1;shadow=1;" vertex="1" parent="M75hgqdOu7IKFfyKgUN4-8">
          <mxGeometry y="112" width="180" height="26" as="geometry" />
        </mxCell>
        <mxCell id="M75hgqdOu7IKFfyKgUN4-13" value="+ notifySubscriber(status)" style="text;strokeColor=none;fillColor=none;align=left;verticalAlign=top;spacingLeft=4;spacingRight=4;overflow=hidden;rotatable=0;points=[[0,0.5],[1,0.5]];portConstraint=eastwest;sketch=1;shadow=1;" vertex="1" parent="M75hgqdOu7IKFfyKgUN4-8">
          <mxGeometry y="138" width="180" height="26" as="geometry" />
        </mxCell>
        <mxCell id="M75hgqdOu7IKFfyKgUN4-48" value="+ doBusiness()" style="text;strokeColor=none;fillColor=none;align=left;verticalAlign=top;spacingLeft=4;spacingRight=4;overflow=hidden;rotatable=0;points=[[0,0.5],[1,0.5]];portConstraint=eastwest;sketch=1;shadow=1;" vertex="1" parent="M75hgqdOu7IKFfyKgUN4-8">
          <mxGeometry y="164" width="180" height="26" as="geometry" />
        </mxCell>
        <mxCell id="M75hgqdOu7IKFfyKgUN4-14" value="Subscriber" style="swimlane;fontStyle=1;align=center;verticalAlign=top;childLayout=stackLayout;horizontal=1;startSize=26;horizontalStack=0;resizeParent=1;resizeParentMax=0;resizeLast=0;collapsible=1;marginBottom=0;sketch=1;shadow=1;" vertex="1" parent="WIyWlLk6GJQsqaUBKTNV-1">
          <mxGeometry x="620" y="590" width="160" height="80" as="geometry" />
        </mxCell>
        <mxCell id="M75hgqdOu7IKFfyKgUN4-21" value="........" style="text;whiteSpace=wrap;html=1;sketch=1;shadow=1;" vertex="1" parent="M75hgqdOu7IKFfyKgUN4-14">
          <mxGeometry y="26" width="160" height="20" as="geometry" />
        </mxCell>
        <mxCell id="M75hgqdOu7IKFfyKgUN4-16" value="" style="line;strokeWidth=1;fillColor=none;align=left;verticalAlign=middle;spacingTop=-1;spacingLeft=3;spacingRight=3;rotatable=0;labelPosition=right;points=[];portConstraint=eastwest;sketch=1;shadow=1;" vertex="1" parent="M75hgqdOu7IKFfyKgUN4-14">
          <mxGeometry y="46" width="160" height="8" as="geometry" />
        </mxCell>
        <mxCell id="M75hgqdOu7IKFfyKgUN4-17" value="+ update(status):" style="text;strokeColor=none;fillColor=none;align=left;verticalAlign=top;spacingLeft=4;spacingRight=4;overflow=hidden;rotatable=0;points=[[0,0.5],[1,0.5]];portConstraint=eastwest;sketch=1;shadow=1;" vertex="1" parent="M75hgqdOu7IKFfyKgUN4-14">
          <mxGeometry y="54" width="160" height="26" as="geometry" />
        </mxCell>
        <mxCell id="M75hgqdOu7IKFfyKgUN4-22" value="Subscriber" style="swimlane;fontStyle=1;align=center;verticalAlign=top;childLayout=stackLayout;horizontal=1;startSize=26;horizontalStack=0;resizeParent=1;resizeParentMax=0;resizeLast=0;collapsible=1;marginBottom=0;sketch=1;shadow=1;" vertex="1" parent="WIyWlLk6GJQsqaUBKTNV-1">
          <mxGeometry x="620" y="690" width="160" height="80" as="geometry" />
        </mxCell>
        <mxCell id="M75hgqdOu7IKFfyKgUN4-23" value="........" style="text;whiteSpace=wrap;html=1;sketch=1;shadow=1;" vertex="1" parent="M75hgqdOu7IKFfyKgUN4-22">
          <mxGeometry y="26" width="160" height="20" as="geometry" />
        </mxCell>
        <mxCell id="M75hgqdOu7IKFfyKgUN4-24" value="" style="line;strokeWidth=1;fillColor=none;align=left;verticalAlign=middle;spacingTop=-1;spacingLeft=3;spacingRight=3;rotatable=0;labelPosition=right;points=[];portConstraint=eastwest;sketch=1;shadow=1;" vertex="1" parent="M75hgqdOu7IKFfyKgUN4-22">
          <mxGeometry y="46" width="160" height="8" as="geometry" />
        </mxCell>
        <mxCell id="M75hgqdOu7IKFfyKgUN4-25" value="+ update(status):" style="text;strokeColor=none;fillColor=none;align=left;verticalAlign=top;spacingLeft=4;spacingRight=4;overflow=hidden;rotatable=0;points=[[0,0.5],[1,0.5]];portConstraint=eastwest;sketch=1;shadow=1;" vertex="1" parent="M75hgqdOu7IKFfyKgUN4-22">
          <mxGeometry y="54" width="160" height="26" as="geometry" />
        </mxCell>
        <mxCell id="M75hgqdOu7IKFfyKgUN4-26" value="Subscriber" style="swimlane;fontStyle=1;align=center;verticalAlign=top;childLayout=stackLayout;horizontal=1;startSize=26;horizontalStack=0;resizeParent=1;resizeParentMax=0;resizeLast=0;collapsible=1;marginBottom=0;sketch=1;shadow=1;" vertex="1" parent="WIyWlLk6GJQsqaUBKTNV-1">
          <mxGeometry x="620" y="800" width="160" height="80" as="geometry" />
        </mxCell>
        <mxCell id="M75hgqdOu7IKFfyKgUN4-27" value="........" style="text;whiteSpace=wrap;html=1;sketch=1;shadow=1;" vertex="1" parent="M75hgqdOu7IKFfyKgUN4-26">
          <mxGeometry y="26" width="160" height="20" as="geometry" />
        </mxCell>
        <mxCell id="M75hgqdOu7IKFfyKgUN4-28" value="" style="line;strokeWidth=1;fillColor=none;align=left;verticalAlign=middle;spacingTop=-1;spacingLeft=3;spacingRight=3;rotatable=0;labelPosition=right;points=[];portConstraint=eastwest;sketch=1;shadow=1;" vertex="1" parent="M75hgqdOu7IKFfyKgUN4-26">
          <mxGeometry y="46" width="160" height="8" as="geometry" />
        </mxCell>
        <mxCell id="M75hgqdOu7IKFfyKgUN4-29" value="+ update(status):" style="text;strokeColor=none;fillColor=none;align=left;verticalAlign=top;spacingLeft=4;spacingRight=4;overflow=hidden;rotatable=0;points=[[0,0.5],[1,0.5]];portConstraint=eastwest;sketch=1;shadow=1;" vertex="1" parent="M75hgqdOu7IKFfyKgUN4-26">
          <mxGeometry y="54" width="160" height="26" as="geometry" />
        </mxCell>
        <mxCell id="M75hgqdOu7IKFfyKgUN4-35" value="" style="endArrow=open;endFill=1;endSize=12;html=1;rounded=0;entryX=0;entryY=0.5;entryDx=0;entryDy=0;sketch=1;shadow=1;edgeStyle=orthogonalEdgeStyle;curved=1;" edge="1" parent="WIyWlLk6GJQsqaUBKTNV-1" target="M75hgqdOu7IKFfyKgUN4-29">
          <mxGeometry width="160" relative="1" as="geometry">
            <mxPoint x="430" y="760" as="sourcePoint" />
            <mxPoint x="550" y="860" as="targetPoint" />
          </mxGeometry>
        </mxCell>
        <mxCell id="M75hgqdOu7IKFfyKgUN4-36" value="" style="endArrow=diamondThin;endFill=0;endSize=24;html=1;rounded=0;entryX=1;entryY=0.923;entryDx=0;entryDy=0;entryPerimeter=0;sketch=1;shadow=1;exitX=0.168;exitY=0.12;exitDx=0;exitDy=0;exitPerimeter=0;edgeStyle=orthogonalEdgeStyle;curved=1;" edge="1" parent="WIyWlLk6GJQsqaUBKTNV-1" source="M75hgqdOu7IKFfyKgUN4-38" target="M75hgqdOu7IKFfyKgUN4-9">
          <mxGeometry width="160" relative="1" as="geometry">
            <mxPoint x="500" y="632" as="sourcePoint" />
            <mxPoint x="570" y="682" as="targetPoint" />
          </mxGeometry>
        </mxCell>
        <mxCell id="M75hgqdOu7IKFfyKgUN4-39" value="" style="endArrow=open;endFill=1;endSize=12;html=1;rounded=0;entryX=0;entryY=0.5;entryDx=0;entryDy=0;sketch=1;shadow=1;edgeStyle=orthogonalEdgeStyle;curved=1;" edge="1" parent="WIyWlLk6GJQsqaUBKTNV-1" source="M75hgqdOu7IKFfyKgUN4-13" target="M75hgqdOu7IKFfyKgUN4-25">
          <mxGeometry width="160" relative="1" as="geometry">
            <mxPoint x="380" y="770" as="sourcePoint" />
            <mxPoint x="630" y="877" as="targetPoint" />
          </mxGeometry>
        </mxCell>
        <mxCell id="M75hgqdOu7IKFfyKgUN4-40" value="" style="endArrow=open;endFill=1;endSize=12;html=1;rounded=0;entryX=0;entryY=0.5;entryDx=0;entryDy=0;sketch=1;shadow=1;exitX=1;exitY=0.5;exitDx=0;exitDy=0;edgeStyle=orthogonalEdgeStyle;curved=1;" edge="1" parent="WIyWlLk6GJQsqaUBKTNV-1" source="M75hgqdOu7IKFfyKgUN4-13" target="M75hgqdOu7IKFfyKgUN4-17">
          <mxGeometry width="160" relative="1" as="geometry">
            <mxPoint x="440" y="767" as="sourcePoint" />
            <mxPoint x="630" y="767" as="targetPoint" />
          </mxGeometry>
        </mxCell>
        <mxCell id="M75hgqdOu7IKFfyKgUN4-42" value="&lt;b&gt;when i doBusiness ,&lt;br&gt;I will tell you all my status ！&lt;br&gt;For Example : publisher.notifySubscriber(status)&lt;/b&gt;" style="text;html=1;align=center;verticalAlign=middle;resizable=0;points=[];autosize=1;strokeColor=none;fillColor=none;" vertex="1" parent="WIyWlLk6GJQsqaUBKTNV-1">
          <mxGeometry x="190" y="870" width="300" height="60" as="geometry" />
        </mxCell>
        <mxCell id="M75hgqdOu7IKFfyKgUN4-43" value="publisher.addSubscriber(subscriber)" style="shape=umlLifeline;perimeter=lifelinePerimeter;whiteSpace=wrap;html=1;container=1;collapsible=0;recursiveResize=0;outlineConnect=0;shadow=1;dashed=1;sketch=1;glass=0;rounded=1;" vertex="1" parent="WIyWlLk6GJQsqaUBKTNV-1">
          <mxGeometry x="370" y="500" width="200" height="180" as="geometry" />
        </mxCell>
      </root>
    </mxGraphModel>
  </diagram>
</mxfile>
